<svg width="42" height="14" viewBox="0 0 42 14" fill="none" xmlns="http://www.w3.org/2000/svg">
<mask id="path-1-outside-1_142_1322" maskUnits="userSpaceOnUse" x="-1" y="-1" width="44" height="16" fill="black">
<rect fill="white" x="-1" y="-1" width="44" height="16"/>
<path d="M6.336 13.224C4.53333 13.224 3.15733 12.7227 2.208 11.72C1.26933 10.7173 0.8 9.29333 0.8 7.448C0.8 6.53067 0.944 5.71467 1.232 5C1.52 4.27467 1.91467 3.66667 2.416 3.176C2.91733 2.67467 3.51467 2.296 4.208 2.04C4.90133 1.784 5.65333 1.656 6.464 1.656C6.93333 1.656 7.36 1.69333 7.744 1.768C8.128 1.832 8.464 1.912 8.752 2.008C9.04 2.09333 9.28 2.184 9.472 2.28C9.664 2.376 9.80267 2.45067 9.888 2.504L9.168 4.52C8.82667 4.33867 8.42667 4.184 7.968 4.056C7.52 3.928 7.008 3.864 6.432 3.864C6.048 3.864 5.66933 3.928 5.296 4.056C4.93333 4.184 4.608 4.392 4.32 4.68C4.04267 4.95733 3.81867 5.32 3.648 5.768C3.47733 6.216 3.392 6.76 3.392 7.4C3.392 7.912 3.44533 8.392 3.552 8.84C3.66933 9.27733 3.85067 9.656 4.096 9.976C4.352 10.296 4.68267 10.552 5.088 10.744C5.49333 10.9253 5.984 11.016 6.56 11.016C6.92267 11.016 7.248 10.9947 7.536 10.952C7.824 10.9093 8.08 10.8613 8.304 10.808C8.528 10.744 8.72533 10.6747 8.896 10.6C9.06667 10.5253 9.22133 10.456 9.36 10.392L10.048 12.392C9.696 12.6053 9.2 12.7973 8.56 12.968C7.92 13.1387 7.17867 13.224 6.336 13.224ZM14.855 13.16C14.1617 13.1493 13.5963 13.0747 13.159 12.936C12.7323 12.7973 12.391 12.6053 12.135 12.36C11.8897 12.104 11.719 11.8 11.623 11.448C11.5377 11.0853 11.495 10.68 11.495 10.232V0.967999L13.879 0.584V9.752C13.879 9.96533 13.895 10.1573 13.927 10.328C13.959 10.4987 14.0177 10.6427 14.103 10.76C14.199 10.8773 14.3323 10.9733 14.503 11.048C14.6737 11.1227 14.903 11.1707 15.191 11.192L14.855 13.16ZM20.0079 11.336C20.2425 11.336 20.4665 11.3307 20.6799 11.32C20.8932 11.3093 21.0639 11.2933 21.1919 11.272V9.464C21.0959 9.44267 20.9519 9.42133 20.7599 9.4C20.5679 9.37867 20.3919 9.368 20.2319 9.368C20.0079 9.368 19.7945 9.384 19.5919 9.416C19.3999 9.43733 19.2292 9.48533 19.0799 9.56C18.9305 9.63467 18.8132 9.736 18.7279 9.864C18.6425 9.992 18.5999 10.152 18.5999 10.344C18.5999 10.7173 18.7225 10.9787 18.9679 11.128C19.2239 11.2667 19.5705 11.336 20.0079 11.336ZM19.8159 4.36C20.5199 4.36 21.1065 4.44 21.5759 4.6C22.0452 4.76 22.4185 4.98933 22.6959 5.288C22.9839 5.58667 23.1865 5.94933 23.3039 6.376C23.4212 6.80267 23.4799 7.27733 23.4799 7.8V12.76C23.1385 12.8347 22.6639 12.92 22.0559 13.016C21.4479 13.1227 20.7119 13.176 19.8479 13.176C19.3039 13.176 18.8079 13.128 18.3599 13.032C17.9225 12.936 17.5439 12.7813 17.2239 12.568C16.9039 12.344 16.6585 12.056 16.4879 11.704C16.3172 11.352 16.2319 10.92 16.2319 10.408C16.2319 9.91733 16.3279 9.50133 16.5199 9.16C16.7225 8.81867 16.9892 8.54667 17.3199 8.344C17.6505 8.14133 18.0292 7.99733 18.4559 7.912C18.8825 7.816 19.3252 7.768 19.7839 7.768C20.0932 7.768 20.3652 7.784 20.5999 7.816C20.8452 7.83733 21.0425 7.86933 21.1919 7.912V7.688C21.1919 7.28267 21.0692 6.95733 20.8239 6.712C20.5785 6.46667 20.1519 6.344 19.5439 6.344C19.1385 6.344 18.7385 6.376 18.3439 6.44C17.9492 6.49333 17.6079 6.57333 17.3199 6.68L17.0159 4.76C17.1545 4.71733 17.3252 4.67467 17.5279 4.632C17.7412 4.57867 17.9705 4.536 18.2159 4.504C18.4612 4.46133 18.7172 4.42933 18.9839 4.408C19.2612 4.376 19.5385 4.36 19.8159 4.36ZM28.0196 13H25.6356V4.584H28.0196V13ZM28.2436 2.152C28.2436 2.58933 28.0996 2.936 27.8116 3.192C27.5343 3.43733 27.2036 3.56 26.8196 3.56C26.4356 3.56 26.0996 3.43733 25.8116 3.192C25.5343 2.936 25.3956 2.58933 25.3956 2.152C25.3956 1.71467 25.5343 1.37333 25.8116 1.128C26.0996 0.871999 26.4356 0.743999 26.8196 0.743999C27.2036 0.743999 27.5343 0.871999 27.8116 1.128C28.0996 1.37333 28.2436 1.71467 28.2436 2.152ZM34.8846 8.536C34.8846 7.768 34.7833 7.224 34.5806 6.904C34.3886 6.584 34.0526 6.424 33.5726 6.424C33.4233 6.424 33.2686 6.43467 33.1086 6.456C32.9486 6.46667 32.794 6.48267 32.6446 6.504V13H30.2606V4.872C30.4633 4.81867 30.698 4.76533 30.9646 4.712C31.242 4.648 31.53 4.59467 31.8286 4.552C32.138 4.49867 32.4526 4.46133 32.7726 4.44C33.0926 4.408 33.4073 4.392 33.7166 4.392C34.3246 4.392 34.8153 4.472 35.1886 4.632C35.5726 4.78133 35.8873 4.96267 36.1326 5.176C36.474 4.93067 36.8633 4.73867 37.3006 4.6C37.7486 4.46133 38.1593 4.392 38.5326 4.392C39.2046 4.392 39.754 4.488 40.1806 4.68C40.618 4.86133 40.9646 5.12267 41.2206 5.464C41.4766 5.80533 41.6526 6.21067 41.7486 6.68C41.8446 7.14933 41.8926 7.672 41.8926 8.248V13H39.5086V8.536C39.5086 7.768 39.4073 7.224 39.2046 6.904C39.0126 6.584 38.6766 6.424 38.1966 6.424C38.0686 6.424 37.8873 6.456 37.6526 6.52C37.4286 6.584 37.242 6.664 37.0926 6.76C37.1673 7.00533 37.2153 7.26667 37.2366 7.544C37.258 7.81067 37.2686 8.09867 37.2686 8.408V13H34.8846V8.536Z"/>
</mask>
<path d="M2.208 11.72L1.47797 12.4034L1.48184 12.4075L2.208 11.72ZM1.232 5L2.15953 5.37378L2.16142 5.36903L1.232 5ZM2.416 3.176L3.1155 3.89071L3.12311 3.88311L2.416 3.176ZM4.208 2.04L3.86163 1.1019L3.86163 1.1019L4.208 2.04ZM7.744 1.768L7.55313 2.74961L7.56633 2.75218L7.5796 2.75439L7.744 1.768ZM8.752 2.008L8.43577 2.95668L8.45176 2.96201L8.46791 2.9668L8.752 2.008ZM9.888 2.504L10.8297 2.84034L11.1004 2.0825L10.418 1.656L9.888 2.504ZM9.168 4.52L8.69884 5.40311L9.7206 5.94592L10.1097 4.85634L9.168 4.52ZM7.968 4.056L7.69327 5.01754L7.6992 5.0192L7.968 4.056ZM5.296 4.056L4.97166 3.11002L4.96318 3.11301L5.296 4.056ZM4.32 4.68L3.61289 3.97289H3.61289L4.32 4.68ZM3.552 8.84L2.57919 9.07162L2.58248 9.08542L2.58616 9.09913L3.552 8.84ZM4.096 9.976L3.30239 10.5844L3.30868 10.5926L3.31513 10.6007L4.096 9.976ZM5.088 10.744L4.65991 11.6477L4.66972 11.6524L4.67963 11.6568L5.088 10.744ZM7.536 10.952L7.38945 9.9628H7.38945L7.536 10.952ZM8.304 10.808L8.53562 11.7808L8.5573 11.7756L8.57872 11.7695L8.304 10.808ZM8.896 10.6L9.29682 11.5162H9.29682L8.896 10.6ZM9.36 10.392L10.3056 10.0667L9.94566 9.02033L8.94094 9.48404L9.36 10.392ZM10.048 12.392L10.5663 13.2472L11.2559 12.8292L10.9936 12.0667L10.048 12.392ZM8.56 12.968L8.81766 13.9342L8.56 12.968ZM6.336 12.224C4.71992 12.224 3.64157 11.7796 2.93416 11.0325L1.48184 12.4075C2.67309 13.6657 4.34675 14.224 6.336 14.224V12.224ZM2.93802 11.0366C2.22531 10.2753 1.8 9.12847 1.8 7.448H-0.2C-0.2 9.4582 0.313354 11.1594 1.47798 12.4034L2.93802 11.0366ZM1.8 7.448C1.8 6.63485 1.92758 5.94932 2.15952 5.37378L0.304481 4.62622C-0.0395832 5.48001 -0.2 6.42649 -0.2 7.448H1.8ZM2.16142 5.36903C2.40362 4.75903 2.72483 4.27299 3.11546 3.89067L1.71654 2.46133C1.1045 3.06034 0.636377 3.7903 0.302584 4.63097L2.16142 5.36903ZM3.12311 3.88311C3.51794 3.48827 3.99066 3.18624 4.55437 2.9781L3.86163 1.1019C3.03867 1.40576 2.31673 1.86106 1.70889 2.46889L3.12311 3.88311ZM4.55437 2.9781C5.12657 2.76682 5.7601 2.656 6.464 2.656V0.655999C5.54656 0.655999 4.6761 0.801175 3.86163 1.1019L4.55437 2.9781ZM6.464 2.656C6.88152 2.656 7.243 2.68931 7.55313 2.74961L7.93487 0.786384C7.47701 0.697355 6.98515 0.655999 6.464 0.655999V2.656ZM7.5796 2.75439C7.92568 2.81207 8.20887 2.88105 8.43577 2.95668L9.06823 1.05932C8.71913 0.942949 8.33032 0.851925 7.9084 0.781606L7.5796 2.75439ZM8.46791 2.9668C8.72012 3.04153 8.90125 3.11266 9.02479 3.17443L9.91921 1.38557C9.65875 1.25534 9.35988 1.14514 9.03609 1.0492L8.46791 2.9668ZM9.02479 3.17443C9.21269 3.26838 9.31544 3.3254 9.358 3.352L10.418 1.656C10.2899 1.57593 10.1153 1.48362 9.91921 1.38557L9.02479 3.17443ZM8.94626 2.16766L8.22626 4.18366L10.1097 4.85634L10.8297 2.84034L8.94626 2.16766ZM9.63716 3.63688C9.21945 3.41498 8.74961 3.23591 8.2368 3.0928L7.6992 5.0192C8.10372 5.13208 8.43388 5.26235 8.69884 5.40311L9.63716 3.63688ZM8.24272 3.09448C7.68724 2.93577 7.07995 2.864 6.432 2.864V4.864C6.93605 4.864 7.35276 4.92023 7.69328 5.01752L8.24272 3.09448ZM6.432 2.864C5.93459 2.864 5.44646 2.94727 4.97168 3.11005L5.62033 5.00195C5.89221 4.90873 6.16142 4.864 6.432 4.864V2.864ZM4.96318 3.11301C4.45144 3.29362 4.0001 3.58568 3.61289 3.97289L5.02711 5.38711C5.2159 5.19832 5.41523 5.07438 5.62882 4.99899L4.96318 3.11301ZM3.61289 3.97289C3.21627 4.36952 2.92347 4.86087 2.71351 5.412L4.58249 6.12399C4.71386 5.77913 4.86907 5.54515 5.02711 5.38711L3.61289 3.97289ZM2.71351 5.412C2.48771 6.00473 2.392 6.67668 2.392 7.4H4.392C4.392 6.84332 4.46696 6.42727 4.58249 6.12399L2.71351 5.412ZM2.392 7.4C2.392 7.98144 2.45258 8.53984 2.57919 9.07162L4.52481 8.60838C4.43809 8.24416 4.392 7.84256 4.392 7.4H2.392ZM2.58616 9.09913C2.73329 9.64753 2.96808 10.1484 3.30239 10.5844L4.88961 9.36757C4.73326 9.16363 4.60538 8.90714 4.51784 8.58087L2.58616 9.09913ZM3.31513 10.6007C3.67471 11.0502 4.13048 11.397 4.65991 11.6477L5.51609 9.84026C5.23485 9.70704 5.02929 9.54184 4.87687 9.35131L3.31513 10.6007ZM4.67963 11.6568C5.24557 11.91 5.88333 12.016 6.56 12.016V10.016C6.08467 10.016 5.74109 9.94067 5.49637 9.83118L4.67963 11.6568ZM6.56 12.016C6.96035 12.016 7.33596 11.9926 7.68255 11.9412L7.38945 9.9628C7.16005 9.99678 6.88498 10.016 6.56 10.016V12.016ZM7.68255 11.9412C7.99206 11.8954 8.27732 11.8423 8.53562 11.7808L8.07238 9.83519C7.88268 9.88036 7.65594 9.92332 7.38945 9.9628L7.68255 11.9412ZM8.57872 11.7695C8.83558 11.6961 9.07654 11.6125 9.29682 11.5162L8.49518 9.68384C8.37413 9.7368 8.22042 9.79186 8.02928 9.84648L8.57872 11.7695ZM9.29682 11.5162C9.47232 11.4394 9.6332 11.3673 9.77906 11.3L8.94094 9.48404C8.80947 9.54472 8.66101 9.61129 8.49518 9.68384L9.29682 11.5162ZM8.41439 10.7173L9.10239 12.7173L10.9936 12.0667L10.3056 10.0667L8.41439 10.7173ZM9.5297 11.5368C9.29284 11.6804 8.89916 11.8426 8.30234 12.0018L8.81766 13.9342C9.50084 13.7521 10.0992 13.5303 10.5663 13.2472L9.5297 11.5368ZM8.30234 12.0018C7.76556 12.1449 7.11405 12.224 6.336 12.224V14.224C7.24329 14.224 8.07444 14.1324 8.81766 13.9342L8.30234 12.0018ZM14.855 13.16L14.8396 14.1599L15.6965 14.1731L15.8407 13.3283L14.855 13.16ZM13.159 12.936L12.8499 13.8871L12.8568 13.8892L13.159 12.936ZM12.135 12.36L11.413 13.0519L11.4277 13.0673L11.4431 13.082L12.135 12.36ZM11.623 11.448L10.6496 11.677L10.6536 11.6942L10.6582 11.7111L11.623 11.448ZM11.495 0.967999L11.336 -0.0192753L10.495 0.116184V0.967999H11.495ZM13.879 0.584H14.879V-0.589963L13.72 -0.403275L13.879 0.584ZM13.927 10.328L14.9099 10.1437L14.9099 10.1437L13.927 10.328ZM14.103 10.76L13.2943 11.3482L13.311 11.3712L13.329 11.3932L14.103 10.76ZM14.503 11.048L14.9038 10.1318L14.503 11.048ZM15.191 11.192L16.1767 11.3603L16.3619 10.276L15.2649 10.1947L15.191 11.192ZM14.8704 12.1601C14.23 12.1503 13.7712 12.0811 13.4612 11.9828L12.8568 13.8892C13.4214 14.0683 14.0933 14.1484 14.8396 14.1599L14.8704 12.1601ZM13.4681 11.985C13.1478 11.8809 12.9493 11.7553 12.8269 11.638L11.4431 13.082C11.8327 13.4554 12.3169 13.7138 12.8499 13.887L13.4681 11.985ZM12.857 11.6681C12.7305 11.5361 12.6412 11.3808 12.5878 11.1849L10.6582 11.7111C10.7968 12.2192 11.0488 12.6719 11.413 13.0519L12.857 11.6681ZM12.5964 11.219C12.5319 10.9447 12.495 10.6179 12.495 10.232H10.495C10.495 10.7421 10.5435 11.226 10.6496 11.677L12.5964 11.219ZM12.495 10.232V0.967999H10.495V10.232H12.495ZM11.654 1.95527L14.038 1.57127L13.72 -0.403275L11.336 -0.0192753L11.654 1.95527ZM12.879 0.584V9.752H14.879V0.584H12.879ZM12.879 9.752C12.879 10.0137 12.8985 10.269 12.9441 10.5123L14.9099 10.1437C14.8915 10.0457 14.879 9.91693 14.879 9.752H12.879ZM12.9441 10.5123C12.9982 10.8005 13.1061 11.0895 13.2943 11.3482L14.9117 10.1718C14.9198 10.183 14.9221 10.1893 14.9211 10.1867C14.9199 10.1837 14.9149 10.1705 14.9099 10.1437L12.9441 10.5123ZM13.329 11.3932C13.5456 11.658 13.8191 11.8403 14.1022 11.9642L14.9038 10.1318C14.8747 10.1191 14.8617 10.1102 14.8593 10.1085C14.8575 10.1072 14.8654 10.1126 14.877 10.1268L13.329 11.3932ZM14.1022 11.9642C14.4172 12.102 14.7714 12.1637 15.1171 12.1893L15.2649 10.1947C15.0346 10.1777 14.9301 10.1434 14.9038 10.1318L14.1022 11.9642ZM14.2053 11.0237L13.8693 12.9917L15.8407 13.3283L16.1767 11.3603L14.2053 11.0237ZM20.6799 11.32L20.7298 12.3188L20.6799 11.32ZM21.1919 11.272L21.3563 12.2584L22.1919 12.1191V11.272H21.1919ZM21.1919 9.464H22.1919V8.66183L21.4088 8.48781L21.1919 9.464ZM19.5919 9.416L19.7023 10.4099L19.7251 10.4073L19.7478 10.4038L19.5919 9.416ZM19.0799 9.56L19.5271 10.4544H19.5271L19.0799 9.56ZM18.9679 11.128L18.4479 11.9822L18.4694 11.9953L18.4916 12.0073L18.9679 11.128ZM22.6959 5.288L21.9631 5.96845L21.9695 5.97535L21.976 5.98214L22.6959 5.288ZM23.3039 6.376L24.2681 6.11084L23.3039 6.376ZM23.4799 12.76L23.6936 13.7369L24.4799 13.5649V12.76H23.4799ZM22.0559 13.016L21.8999 12.0282L21.8915 12.0296L21.8831 12.031L22.0559 13.016ZM18.3599 13.032L18.1455 14.0088L18.1503 14.0098L18.3599 13.032ZM17.2239 12.568L16.6504 13.3872L16.6597 13.3937L16.6692 13.4001L17.2239 12.568ZM16.4879 11.704L17.3877 11.2677L16.4879 11.704ZM16.5199 9.16L15.66 8.64946L15.654 8.65953L15.6483 8.66974L16.5199 9.16ZM17.3199 8.344L17.8424 9.1966L17.3199 8.344ZM18.4559 7.912L18.652 8.89258L18.6637 8.89023L18.6754 8.88761L18.4559 7.912ZM20.5999 7.816L20.4648 8.80683L20.4889 8.81013L20.5132 8.81224L20.5999 7.816ZM21.1919 7.912L20.9172 8.87352L22.1919 9.23773V7.912H21.1919ZM18.3439 6.44L18.4778 7.43099L18.4909 7.42922L18.5039 7.4271L18.3439 6.44ZM17.3199 6.68L16.3322 6.83638L16.523 8.04153L17.6672 7.61775L17.3199 6.68ZM17.0159 4.76L16.7218 3.80422L15.8925 4.05939L16.0282 4.91638L17.0159 4.76ZM17.5279 4.632L17.7339 5.61055L17.7522 5.60669L17.7704 5.60214L17.5279 4.632ZM18.2159 4.504L18.3452 5.4956L18.3663 5.49285L18.3872 5.48921L18.2159 4.504ZM18.9839 4.408L19.0636 5.40482L19.0811 5.40342L19.0985 5.40141L18.9839 4.408ZM20.0079 12.336C20.2576 12.336 20.4983 12.3303 20.7298 12.3188L20.6299 10.3212C20.4348 10.331 20.2275 10.336 20.0079 10.336V12.336ZM20.7298 12.3188C20.9604 12.3072 21.1741 12.2888 21.3563 12.2584L21.0275 10.2856C20.9536 10.2979 20.826 10.3114 20.6299 10.3212L20.7298 12.3188ZM22.1919 11.272V9.464H20.1919V11.272H22.1919ZM21.4088 8.48781C21.2585 8.4544 21.071 8.42841 20.8703 8.40612L20.6494 10.3939C20.8328 10.4143 20.9333 10.4309 20.9749 10.4402L21.4088 8.48781ZM20.8703 8.40612C20.6489 8.38151 20.4354 8.368 20.2319 8.368V10.368C20.3484 10.368 20.4869 10.3758 20.6494 10.3939L20.8703 8.40612ZM20.2319 8.368C19.9604 8.368 19.6946 8.38739 19.4359 8.42824L19.7478 10.4038C19.8945 10.3806 20.0554 10.368 20.2319 10.368V8.368ZM19.4814 8.42212C19.1903 8.45446 18.9027 8.53057 18.6327 8.66557L19.5271 10.4544C19.5557 10.4401 19.6094 10.4202 19.7023 10.4099L19.4814 8.42212ZM18.6327 8.66557C18.3414 8.81123 18.0858 9.02429 17.8958 9.3093L19.5599 10.4187C19.5521 10.4304 19.5426 10.4409 19.5335 10.4488C19.5247 10.4564 19.521 10.4575 19.5271 10.4544L18.6327 8.66557ZM17.8958 9.3093C17.6766 9.63814 17.5999 10.0037 17.5999 10.344H19.5999C19.5999 10.3215 19.6024 10.3215 19.5981 10.3377C19.5934 10.3553 19.5824 10.385 19.5599 10.4187L17.8958 9.3093ZM17.5999 10.344C17.5999 10.9473 17.8152 11.5971 18.4479 11.9822L19.4878 10.2738C19.5067 10.2853 19.5296 10.303 19.5516 10.3276C19.5736 10.3522 19.5883 10.3764 19.5971 10.3951C19.6137 10.4304 19.5999 10.4252 19.5999 10.344H17.5999ZM18.4916 12.0073C18.9491 12.2551 19.4811 12.336 20.0079 12.336V10.336C19.66 10.336 19.4986 10.2782 19.4442 10.2487L18.4916 12.0073ZM19.8159 5.36C20.4523 5.36 20.9213 5.43338 21.2532 5.54651L21.8985 3.65349C21.2917 3.44662 20.5874 3.36 19.8159 3.36V5.36ZM21.2532 5.54651C21.5995 5.66458 21.8203 5.81464 21.9631 5.96845L23.4287 4.60755C23.0168 4.16403 22.4909 3.85542 21.8985 3.65349L21.2532 5.54651ZM21.976 5.98214C22.1403 6.15249 22.2636 6.3646 22.3397 6.64116L24.2681 6.11084C24.1095 5.53406 23.8274 5.02084 23.4157 4.59386L21.976 5.98214ZM22.3397 6.64116C22.4294 6.9675 22.4799 7.35121 22.4799 7.8H24.4799C24.4799 7.20345 24.413 6.63783 24.2681 6.11084L22.3397 6.64116ZM22.4799 7.8V12.76H24.4799V7.8H22.4799ZM23.2662 11.7831C22.9531 11.8516 22.5007 11.9334 21.8999 12.0282L22.2118 14.0038C22.827 13.9066 23.324 13.8177 23.6936 13.7369L23.2662 11.7831ZM21.8831 12.031C21.3497 12.1246 20.675 12.176 19.8479 12.176V14.176C20.7488 14.176 21.5461 14.1207 22.2287 14.001L21.8831 12.031ZM19.8479 12.176C19.3616 12.176 18.9372 12.133 18.5694 12.0542L18.1503 14.0098C18.6786 14.123 19.2461 14.176 19.8479 14.176V12.176ZM18.5743 12.0553C18.2388 11.9816 17.9796 11.87 17.7786 11.7359L16.6692 13.4001C17.1081 13.6927 17.6063 13.8904 18.1455 14.0087L18.5743 12.0553ZM17.7973 11.7488C17.6172 11.6227 17.4841 11.4666 17.3877 11.2677L15.5881 12.1403C15.833 12.6454 16.1905 13.0653 16.6504 13.3872L17.7973 11.7488ZM17.3877 11.2677C17.3001 11.087 17.2319 10.8137 17.2319 10.408H15.2319C15.2319 11.0263 15.3344 11.617 15.5881 12.1403L17.3877 11.2677ZM17.2319 10.408C17.2319 10.0463 17.3024 9.80859 17.3915 9.65026L15.6483 8.66974C15.3534 9.19408 15.2319 9.78838 15.2319 10.408H17.2319ZM17.3797 9.67054C17.5015 9.46552 17.6537 9.31229 17.8424 9.1966L16.7973 7.4914C16.3247 7.78104 15.9436 8.17181 15.66 8.64946L17.3797 9.67054ZM17.8424 9.1966C18.0612 9.06252 18.3269 8.95761 18.652 8.89258L18.2598 6.93142C17.7316 7.03706 17.2399 7.22015 16.7973 7.4914L17.8424 9.1966ZM18.6754 8.88761C19.0266 8.80859 19.3955 8.768 19.7839 8.768V6.768C19.255 6.768 18.7385 6.82341 18.2364 6.93639L18.6754 8.88761ZM19.7839 8.768C20.0609 8.768 20.286 8.78245 20.4648 8.80683L20.735 6.82517C20.4444 6.78554 20.1256 6.768 19.7839 6.768V8.768ZM20.5132 8.81224C20.7272 8.83085 20.8541 8.85551 20.9172 8.87352L21.4666 6.95048C21.231 6.88315 20.9632 6.84382 20.6865 6.81976L20.5132 8.81224ZM22.1919 7.912V7.688H20.1919V7.912H22.1919ZM22.1919 7.688C22.1919 7.06561 21.9954 6.46928 21.531 6.00489L20.1168 7.41911C20.1431 7.44539 20.1919 7.49972 20.1919 7.688H22.1919ZM21.531 6.00489C20.9989 5.47285 20.2326 5.344 19.5439 5.344V7.344C19.7863 7.344 19.9463 7.3691 20.0436 7.39707C20.1386 7.42438 20.1428 7.44515 20.1168 7.41911L21.531 6.00489ZM19.5439 5.344C19.0857 5.344 18.6321 5.38019 18.1838 5.45289L18.5039 7.4271C18.845 7.37181 19.1914 7.344 19.5439 7.344V5.344ZM18.21 5.44901C17.7626 5.50945 17.3463 5.60382 16.9726 5.74225L17.6672 7.61775C17.8694 7.54285 18.1358 7.47721 18.4778 7.43099L18.21 5.44901ZM18.3076 6.52361L18.0036 4.60361L16.0282 4.91638L16.3322 6.83638L18.3076 6.52361ZM17.31 5.71578C17.4103 5.6849 17.5495 5.64936 17.7339 5.61055L17.3219 3.65345C17.1009 3.69997 16.8988 3.74976 16.7218 3.80422L17.31 5.71578ZM17.7704 5.60214C17.9422 5.5592 18.1334 5.52323 18.3452 5.4956L18.0865 3.5124C17.8077 3.54877 17.5402 3.59813 17.2853 3.66186L17.7704 5.60214ZM18.3872 5.48921C18.6001 5.45219 18.8254 5.42387 19.0636 5.40482L18.9041 3.41118C18.609 3.43479 18.3223 3.47047 18.0445 3.51879L18.3872 5.48921ZM19.0985 5.40141C19.338 5.37377 19.5771 5.36 19.8159 5.36V3.36C19.5 3.36 19.1844 3.37823 18.8693 3.41459L19.0985 5.40141ZM28.0196 13V14H29.0196V13H28.0196ZM25.6356 13H24.6356V14H25.6356V13ZM25.6356 4.584V3.584H24.6356V4.584H25.6356ZM28.0196 4.584H29.0196V3.584H28.0196V4.584ZM27.8116 3.192L28.4742 3.941L28.476 3.93941L27.8116 3.192ZM25.8116 3.192L25.1333 3.9268L25.148 3.94032L25.1632 3.95324L25.8116 3.192ZM25.8116 1.128L26.4742 1.877L26.476 1.87541L25.8116 1.128ZM27.8116 1.128L27.1333 1.8628L27.148 1.87632L27.1632 1.88924L27.8116 1.128ZM28.0196 12H25.6356V14H28.0196V12ZM26.6356 13V4.584H24.6356V13H26.6356ZM25.6356 5.584H28.0196V3.584H25.6356V5.584ZM27.0196 4.584V13H29.0196V4.584H27.0196ZM27.2436 2.152C27.2436 2.34648 27.1918 2.40504 27.1473 2.44459L28.476 3.93941C29.0075 3.46696 29.2436 2.83219 29.2436 2.152H27.2436ZM27.1491 2.443C27.0618 2.52015 26.9695 2.56 26.8196 2.56V4.56C27.4378 4.56 28.0067 4.35451 28.4742 3.941L27.1491 2.443ZM26.8196 2.56C26.6694 2.56 26.5642 2.51946 26.4601 2.43076L25.1632 3.95324C25.635 4.3552 26.2019 4.56 26.8196 4.56V2.56ZM26.4899 2.4572C26.4508 2.4211 26.3956 2.35879 26.3956 2.152H24.3956C24.3956 2.81988 24.6178 3.4509 25.1333 3.9268L26.4899 2.4572ZM26.3956 2.152C26.3956 1.9442 26.4507 1.8978 26.4742 1.877L25.1491 0.379003C24.6179 0.848863 24.3956 1.48513 24.3956 2.152H26.3956ZM26.476 1.87541C26.5816 1.7815 26.6815 1.744 26.8196 1.744V-0.256001C26.1898 -0.256001 25.6176 -0.0374982 25.1473 0.38059L26.476 1.87541ZM26.8196 1.744C26.9571 1.744 27.0443 1.78058 27.1333 1.8628L28.4899 0.393196C28.0243 -0.0365812 27.4502 -0.256001 26.8196 -0.256001V1.744ZM27.1632 1.88924C27.1921 1.91393 27.2436 1.95685 27.2436 2.152H29.2436C29.2436 1.47248 29.0071 0.832733 28.4601 0.366756L27.1632 1.88924ZM34.5806 6.904L33.7231 7.4185L33.7293 7.42885L33.7358 7.43905L34.5806 6.904ZM33.1086 6.456L33.1751 7.45378L33.2081 7.45159L33.2408 7.44723L33.1086 6.456ZM32.6446 6.504L32.5032 5.51405L31.6446 5.6367V6.504H32.6446ZM32.6446 13V14H33.6446V13H32.6446ZM30.2606 13H29.2606V14H30.2606V13ZM30.2606 4.872L30.0061 3.90493L29.2606 4.10111V4.872H30.2606ZM30.9646 4.712L31.1607 5.69258L31.1752 5.6897L31.1895 5.68639L30.9646 4.712ZM31.8286 4.552L31.97 5.54195L31.9843 5.53991L31.9985 5.53746L31.8286 4.552ZM32.7726 4.44L32.8391 5.43778L32.8557 5.43668L32.8721 5.43504L32.7726 4.44ZM35.1886 4.632L34.7947 5.55114L34.8103 5.55784L34.8262 5.564L35.1886 4.632ZM36.1326 5.176L35.4764 5.9306L36.0736 6.4499L36.7163 5.98802L36.1326 5.176ZM37.3006 4.6L37.0049 3.64469L36.9984 3.64677L37.3006 4.6ZM40.1806 4.68L39.7703 5.59192L39.7838 5.59803L39.7976 5.60374L40.1806 4.68ZM41.2206 5.464L42.0206 4.864V4.864L41.2206 5.464ZM41.8926 13V14H42.8926V13H41.8926ZM39.5086 13H38.5086V14H39.5086V13ZM39.2046 6.904L38.3471 7.4185L38.3533 7.42885L38.3598 7.43905L39.2046 6.904ZM37.6526 6.52L37.3895 5.55517L37.3779 5.55848L37.6526 6.52ZM37.0926 6.76L36.5519 5.91882L35.9158 6.32773L36.136 7.05116L37.0926 6.76ZM37.2366 7.544L36.2396 7.6207L36.2398 7.62374L37.2366 7.544ZM37.2686 13V14H38.2686V13H37.2686ZM34.8846 13H33.8846V14H34.8846V13ZM35.8846 8.536C35.8846 7.73757 35.7899 6.94444 35.4254 6.36895L33.7358 7.43905C33.7767 7.50356 33.8846 7.79842 33.8846 8.536H35.8846ZM35.4381 6.3895C35.0131 5.6812 34.2888 5.424 33.5726 5.424V7.424C33.7054 7.424 33.754 7.44655 33.7547 7.44686C33.7548 7.44693 33.7528 7.44595 33.7492 7.44355C33.7455 7.44113 33.7413 7.4379 33.737 7.43394C33.7274 7.42526 33.7231 7.4184 33.7231 7.4185L35.4381 6.3895ZM33.5726 5.424C33.3757 5.424 33.1768 5.43806 32.9765 5.46477L33.2408 7.44723C33.3605 7.43127 33.4709 7.424 33.5726 7.424V5.424ZM33.0421 5.45821C32.8586 5.47045 32.6789 5.48895 32.5032 5.51405L32.786 7.49395C32.909 7.47638 33.0386 7.46288 33.1751 7.45378L33.0421 5.45821ZM31.6446 6.504V13H33.6446V6.504H31.6446ZM32.6446 12H30.2606V14H32.6446V12ZM31.2606 13V4.872H29.2606V13H31.2606ZM30.5151 5.83907C30.6938 5.79206 30.9083 5.74308 31.1607 5.69258L30.7685 3.73142C30.4877 3.78759 30.2328 3.84527 30.0061 3.90493L30.5151 5.83907ZM31.1895 5.68639C31.4377 5.62912 31.6977 5.58085 31.97 5.54195L31.6872 3.56205C31.3622 3.60848 31.0463 3.66688 30.7398 3.73761L31.1895 5.68639ZM31.9985 5.53746C32.2729 5.49015 32.553 5.45686 32.8391 5.43778L32.7061 3.44221C32.3522 3.46581 32.003 3.50718 31.6587 3.56654L31.9985 5.53746ZM32.8721 5.43504C33.1604 5.40621 33.4418 5.392 33.7166 5.392V3.392C33.3728 3.392 33.0249 3.40979 32.6731 3.44496L32.8721 5.43504ZM33.7166 5.392C34.2503 5.392 34.5918 5.4642 34.7947 5.55114L35.5825 3.71286C35.0388 3.4798 34.399 3.392 33.7166 3.392V5.392ZM34.8262 5.564C35.1302 5.68223 35.3378 5.81004 35.4764 5.9306L36.7888 4.42139C36.4368 4.11529 36.0151 3.88043 35.5511 3.7L34.8262 5.564ZM36.7163 5.98802C36.9644 5.80969 37.257 5.66288 37.6029 5.55323L36.9984 3.64677C36.4695 3.81445 35.9835 4.05164 35.549 4.36398L36.7163 5.98802ZM37.5963 5.55529C37.9719 5.43903 38.2814 5.392 38.5326 5.392V3.392C38.0372 3.392 37.5253 3.48364 37.0049 3.64471L37.5963 5.55529ZM38.5326 5.392C39.1202 5.392 39.5161 5.47755 39.7703 5.59192L40.591 3.76808C39.9918 3.49845 39.289 3.392 38.5326 3.392V5.392ZM39.7976 5.60374C40.0881 5.72418 40.2836 5.8813 40.4206 6.064L42.0206 4.864C41.6457 4.36404 41.1478 3.99848 40.5636 3.75626L39.7976 5.60374ZM40.4206 6.064C40.5776 6.27327 40.6989 6.53802 40.7689 6.8804L42.7283 6.4796C42.6064 5.88331 42.3757 5.3374 42.0206 4.864L40.4206 6.064ZM40.7689 6.8804C40.849 7.27213 40.8926 7.72627 40.8926 8.248H42.8926C42.8926 7.61773 42.8402 7.02653 42.7283 6.4796L40.7689 6.8804ZM40.8926 8.248V13H42.8926V8.248H40.8926ZM41.8926 12H39.5086V14H41.8926V12ZM40.5086 13V8.536H38.5086V13H40.5086ZM40.5086 8.536C40.5086 7.73757 40.4139 6.94444 40.0494 6.36895L38.3598 7.43905C38.4007 7.50356 38.5086 7.79842 38.5086 8.536H40.5086ZM40.0621 6.3895C39.6371 5.6812 38.9128 5.424 38.1966 5.424V7.424C38.3294 7.424 38.378 7.44655 38.3787 7.44686C38.3788 7.44693 38.3768 7.44595 38.3732 7.44355C38.3695 7.44113 38.3653 7.4379 38.361 7.43394C38.3514 7.42526 38.3471 7.4184 38.3471 7.4185L40.0621 6.3895ZM38.1966 5.424C37.9325 5.424 37.6477 5.48483 37.3895 5.55524L37.9157 7.48476C38.0123 7.45842 38.0856 7.44211 38.1384 7.43278C38.1943 7.42292 38.2101 7.424 38.1966 7.424V5.424ZM37.3779 5.55848C37.0874 5.64148 36.8046 5.75636 36.5519 5.91882L37.6334 7.60118C37.6793 7.57164 37.7699 7.52652 37.9273 7.48152L37.3779 5.55848ZM36.136 7.05116C36.1877 7.22109 36.2234 7.41003 36.2396 7.6207L38.2337 7.4673C38.2072 7.1233 38.1469 6.78958 38.0493 6.46884L36.136 7.05116ZM36.2398 7.62374C36.2587 7.86017 36.2686 8.12128 36.2686 8.408H38.2686C38.2686 8.07606 38.2572 7.76116 38.2334 7.46426L36.2398 7.62374ZM36.2686 8.408V13H38.2686V8.408H36.2686ZM37.2686 12H34.8846V14H37.2686V12ZM35.8846 13V8.536H33.8846V13H35.8846Z" fill="#FFFCFC" mask="url(#path-1-outside-1_142_1322)"/>
</svg>
