<svg width="200" height="206" viewBox="0 0 200 206" fill="none" xmlns="http://www.w3.org/2000/svg">
<path d="M192.851 75.6367C196.822 97.8143 120.191 80.7797 90.9963 80.7797C72.1052 80.7797 41.6555 93.0159 22.5151 95.5457C7.73991 97.4985 6.05791 79.8909 11.4535 65.9981C26.7453 26.6245 56.7377 4.64361 92.6312 0.279167C138.899 -3.36666 184.513 29.0722 192.851 75.6367Z" fill="url(#paint0_linear_138_568)"/>
<g filter="url(#filter0_d_138_568)">
<circle cx="100" cy="102" r="95" fill="url(#paint1_linear_138_568)"/>
<circle cx="100" cy="102" r="95.5" stroke="url(#paint2_linear_138_568)"/>
</g>
<g filter="url(#filter1_ii_138_568)">
<rect x="37" y="39" width="126.603" height="127" rx="63.3013" fill="url(#paint3_linear_138_568)"/>
<path d="M63.4952 125.75L100.301 62L137.107 125.75C137.3 126.083 137.059 126.5 136.674 126.5H63.9282C63.5433 126.5 63.3027 126.083 63.4952 125.75Z" stroke="url(#paint4_linear_138_568)" stroke-width="7"/>
<path d="M96.7843 83.296V97.072C96.7843 97.584 96.8963 97.952 97.1203 98.176C97.3763 98.4 97.9203 98.512 98.7523 98.512H102.304V103.072H96.2083C94.3843 103.072 92.9123 102.88 91.7923 102.496C90.7043 102.112 89.8883 101.44 89.3443 100.48C88.8323 99.488 88.4963 98.432 88.3363 97.312C88.2083 96.192 88.1443 94.688 88.1443 92.8C88.1443 90.88 88.2083 89.424 88.3363 88.432C88.4963 87.44 88.8323 86.512 89.3443 85.648C89.8883 84.784 90.7043 84.176 91.7923 83.824C92.9123 83.472 94.3843 83.296 96.2083 83.296H96.7843ZM89.0083 107.296H95.0563C95.5043 107.296 95.7763 107.36 95.8723 107.488C95.9683 107.616 96.0163 107.888 96.0163 108.304V112.048C96.0163 112.56 96.0803 112.928 96.2083 113.152C96.3683 113.344 96.7363 113.44 97.3123 113.44H98.7043V109.36H102.544V128.704H98.7043V118H95.4403C93.1043 118 91.3283 117.6 90.1123 116.8C88.9283 116 88.3363 114.608 88.3363 112.624V108.304C88.3363 107.632 88.5603 107.296 89.0083 107.296ZM102.544 74.272V83.296H104.8C107.136 83.296 108.896 83.696 110.08 84.496C111.296 85.296 111.904 86.688 111.904 88.672V92.992C111.904 93.664 111.68 94 111.232 94H105.184C104.736 94 104.464 93.936 104.368 93.808C104.272 93.68 104.224 93.408 104.224 92.992V89.248C104.224 88.736 104.144 88.384 103.984 88.192C103.856 87.968 103.504 87.856 102.928 87.856H102.544V94.096H98.7043V74.272H102.544ZM104.992 98.56C106.368 98.56 107.424 98.592 108.16 98.656C108.928 98.688 109.664 98.832 110.368 99.088C111.072 99.312 111.552 99.584 111.808 99.904C112.096 100.224 112.352 100.784 112.576 101.584C112.832 102.352 112.976 103.184 113.008 104.08C113.04 104.976 113.056 106.256 113.056 107.92C113.056 109.584 113.04 110.912 113.008 111.904C112.976 112.864 112.832 113.792 112.576 114.688C112.352 115.552 112.096 116.16 111.808 116.512C111.552 116.864 111.072 117.184 110.368 117.472C109.664 117.728 108.928 117.888 108.16 117.952C107.424 117.984 106.368 118 104.992 118H104.464L104.416 98.56H104.992Z" fill="url(#paint5_linear_138_568)"/>
</g>
<g filter="url(#filter2_ii_138_568)">
<rect x="37" y="39" width="126.603" height="127" rx="63.3013" fill="url(#paint6_linear_138_568)"/>
<path d="M63.4952 125.75L100.301 62L137.107 125.75C137.3 126.083 137.059 126.5 136.674 126.5H63.9282C63.5433 126.5 63.3027 126.083 63.4952 125.75Z" stroke="url(#paint7_linear_138_568)" stroke-width="7"/>
<path d="M96.7843 83.296V97.072C96.7843 97.584 96.8963 97.952 97.1203 98.176C97.3763 98.4 97.9203 98.512 98.7523 98.512H102.304V103.072H96.2083C94.3843 103.072 92.9123 102.88 91.7923 102.496C90.7043 102.112 89.8883 101.44 89.3443 100.48C88.8323 99.488 88.4963 98.432 88.3363 97.312C88.2083 96.192 88.1443 94.688 88.1443 92.8C88.1443 90.88 88.2083 89.424 88.3363 88.432C88.4963 87.44 88.8323 86.512 89.3443 85.648C89.8883 84.784 90.7043 84.176 91.7923 83.824C92.9123 83.472 94.3843 83.296 96.2083 83.296H96.7843ZM89.0083 107.296H95.0563C95.5043 107.296 95.7763 107.36 95.8723 107.488C95.9683 107.616 96.0163 107.888 96.0163 108.304V112.048C96.0163 112.56 96.0803 112.928 96.2083 113.152C96.3683 113.344 96.7363 113.44 97.3123 113.44H98.7043V109.36H102.544V128.704H98.7043V118H95.4403C93.1043 118 91.3283 117.6 90.1123 116.8C88.9283 116 88.3363 114.608 88.3363 112.624V108.304C88.3363 107.632 88.5603 107.296 89.0083 107.296ZM102.544 74.272V83.296H104.8C107.136 83.296 108.896 83.696 110.08 84.496C111.296 85.296 111.904 86.688 111.904 88.672V92.992C111.904 93.664 111.68 94 111.232 94H105.184C104.736 94 104.464 93.936 104.368 93.808C104.272 93.68 104.224 93.408 104.224 92.992V89.248C104.224 88.736 104.144 88.384 103.984 88.192C103.856 87.968 103.504 87.856 102.928 87.856H102.544V94.096H98.7043V74.272H102.544ZM104.992 98.56C106.368 98.56 107.424 98.592 108.16 98.656C108.928 98.688 109.664 98.832 110.368 99.088C111.072 99.312 111.552 99.584 111.808 99.904C112.096 100.224 112.352 100.784 112.576 101.584C112.832 102.352 112.976 103.184 113.008 104.08C113.04 104.976 113.056 106.256 113.056 107.92C113.056 109.584 113.04 110.912 113.008 111.904C112.976 112.864 112.832 113.792 112.576 114.688C112.352 115.552 112.096 116.16 111.808 116.512C111.552 116.864 111.072 117.184 110.368 117.472C109.664 117.728 108.928 117.888 108.16 117.952C107.424 117.984 106.368 118 104.992 118H104.464L104.416 98.56H104.992Z" fill="url(#paint8_linear_138_568)"/>
</g>
<circle cx="100.5" cy="102.5" r="63" stroke="#9AA1B7"/>
<defs>
<filter id="filter0_d_138_568" x="0" y="6" width="200" height="200" filterUnits="userSpaceOnUse" color-interpolation-filters="sRGB">
<feFlood flood-opacity="0" result="BackgroundImageFix"/>
<feColorMatrix in="SourceAlpha" type="matrix" values="0 0 0 0 0 0 0 0 0 0 0 0 0 0 0 0 0 0 127 0" result="hardAlpha"/>
<feOffset dy="4"/>
<feGaussianBlur stdDeviation="2"/>
<feComposite in2="hardAlpha" operator="out"/>
<feColorMatrix type="matrix" values="0 0 0 0 0 0 0 0 0 0 0 0 0 0 0 0 0 0 0.25 0"/>
<feBlend mode="normal" in2="BackgroundImageFix" result="effect1_dropShadow_138_568"/>
<feBlend mode="normal" in="SourceGraphic" in2="effect1_dropShadow_138_568" result="shape"/>
</filter>
<filter id="filter1_ii_138_568" x="34" y="33.9" width="134.703" height="132.1" filterUnits="userSpaceOnUse" color-interpolation-filters="sRGB">
<feFlood flood-opacity="0" result="BackgroundImageFix"/>
<feBlend mode="normal" in="SourceGraphic" in2="BackgroundImageFix" result="shape"/>
<feColorMatrix in="SourceAlpha" type="matrix" values="0 0 0 0 0 0 0 0 0 0 0 0 0 0 0 0 0 0 127 0" result="hardAlpha"/>
<feOffset dx="11" dy="-8"/>
<feGaussianBlur stdDeviation="2.55"/>
<feComposite in2="hardAlpha" operator="arithmetic" k2="-1" k3="1"/>
<feColorMatrix type="matrix" values="0 0 0 0 0.0745098 0 0 0 0 0.0745098 0 0 0 0 0.0745098 0 0 0 0.2 0"/>
<feBlend mode="normal" in2="shape" result="effect1_innerShadow_138_568"/>
<feColorMatrix in="SourceAlpha" type="matrix" values="0 0 0 0 0 0 0 0 0 0 0 0 0 0 0 0 0 0 127 0" result="hardAlpha"/>
<feOffset dx="-3" dy="-5"/>
<feGaussianBlur stdDeviation="3.6"/>
<feComposite in2="hardAlpha" operator="arithmetic" k2="-1" k3="1"/>
<feColorMatrix type="matrix" values="0 0 0 0 1 0 0 0 0 1 0 0 0 0 1 0 0 0 0.5 0"/>
<feBlend mode="normal" in2="effect1_innerShadow_138_568" result="effect2_innerShadow_138_568"/>
</filter>
<filter id="filter2_ii_138_568" x="34" y="33.9" width="134.703" height="132.1" filterUnits="userSpaceOnUse" color-interpolation-filters="sRGB">
<feFlood flood-opacity="0" result="BackgroundImageFix"/>
<feBlend mode="normal" in="SourceGraphic" in2="BackgroundImageFix" result="shape"/>
<feColorMatrix in="SourceAlpha" type="matrix" values="0 0 0 0 0 0 0 0 0 0 0 0 0 0 0 0 0 0 127 0" result="hardAlpha"/>
<feOffset dx="11" dy="-8"/>
<feGaussianBlur stdDeviation="2.55"/>
<feComposite in2="hardAlpha" operator="arithmetic" k2="-1" k3="1"/>
<feColorMatrix type="matrix" values="0 0 0 0 0.0745098 0 0 0 0 0.0745098 0 0 0 0 0.0745098 0 0 0 0.2 0"/>
<feBlend mode="normal" in2="shape" result="effect1_innerShadow_138_568"/>
<feColorMatrix in="SourceAlpha" type="matrix" values="0 0 0 0 0 0 0 0 0 0 0 0 0 0 0 0 0 0 127 0" result="hardAlpha"/>
<feOffset dx="-3" dy="-5"/>
<feGaussianBlur stdDeviation="3.6"/>
<feComposite in2="hardAlpha" operator="arithmetic" k2="-1" k3="1"/>
<feColorMatrix type="matrix" values="0 0 0 0 1 0 0 0 0 1 0 0 0 0 1 0 0 0 0.5 0"/>
<feBlend mode="normal" in2="effect1_innerShadow_138_568" result="effect2_innerShadow_138_568"/>
</filter>
<linearGradient id="paint0_linear_138_568" x1="191.38" y1="43.0456" x2="9.90473" y2="43.0456" gradientUnits="userSpaceOnUse">
<stop stop-color="#8696B8"/>
<stop offset="1" stop-color="#E6E7E8"/>
</linearGradient>
<linearGradient id="paint1_linear_138_568" x1="100" y1="7" x2="100" y2="197" gradientUnits="userSpaceOnUse">
<stop stop-color="#949CB3"/>
<stop offset="1" stop-color="#E2E3E4"/>
</linearGradient>
<linearGradient id="paint2_linear_138_568" x1="100" y1="7" x2="100" y2="197" gradientUnits="userSpaceOnUse">
<stop stop-color="#F9F9FB"/>
<stop offset="1" stop-color="#747577"/>
</linearGradient>
<linearGradient id="paint3_linear_138_568" x1="100.301" y1="39" x2="100.301" y2="166" gradientUnits="userSpaceOnUse">
<stop stop-color="white"/>
<stop offset="1" stop-color="#949CB3"/>
</linearGradient>
<linearGradient id="paint4_linear_138_568" x1="100.301" y1="55" x2="100.301" y2="130" gradientUnits="userSpaceOnUse">
<stop stop-color="#677EFE"/>
<stop offset="1" stop-color="#131313"/>
</linearGradient>
<linearGradient id="paint5_linear_138_568" x1="115" y1="100" x2="86" y2="100" gradientUnits="userSpaceOnUse">
<stop stop-color="#677EFE"/>
<stop offset="1" stop-color="#131313"/>
</linearGradient>
<linearGradient id="paint6_linear_138_568" x1="100.301" y1="39" x2="100.301" y2="166" gradientUnits="userSpaceOnUse">
<stop stop-color="white"/>
<stop offset="1" stop-color="#949CB3"/>
</linearGradient>
<linearGradient id="paint7_linear_138_568" x1="100.301" y1="55" x2="100.301" y2="130" gradientUnits="userSpaceOnUse">
<stop stop-color="#677EFE"/>
<stop offset="1" stop-color="#131313"/>
</linearGradient>
<linearGradient id="paint8_linear_138_568" x1="115" y1="100" x2="86" y2="100" gradientUnits="userSpaceOnUse">
<stop stop-color="#677EFE"/>
<stop offset="1" stop-color="#131313"/>
</linearGradient>
</defs>
</svg>
