<svg width="24" height="24" viewBox="0 0 24 24" fill="none" xmlns="http://www.w3.org/2000/svg">
<path d="M2 19.6577H4M4 19.6577H10M4 19.6577V11.2889C4 10.7658 4 10.5041 4.06497 10.2606C4.12255 10.0449 4.21779 9.84077 4.3457 9.65629C4.49004 9.44811 4.69064 9.27549 5.09277 8.93099L9.89436 4.81762C10.6398 4.17899 11.0126 3.85965 11.4324 3.7381C11.8026 3.63092 12.1972 3.63092 12.5674 3.7381C12.9875 3.85974 13.3608 4.17938 14.1074 4.81898L18.9074 8.93099C19.3095 9.27548 19.5102 9.44812 19.6546 9.65629C19.7825 9.84077 19.877 10.0449 19.9346 10.2606C19.9995 10.5041 20 10.7658 20 11.2889V19.6577M10 19.6577H14M10 19.6577V15.7415C10 14.6601 10.8954 13.7834 12 13.7834C13.1046 13.7834 14 14.6601 14 15.7415V19.6577M14 19.6577H20M20 19.6577H22" stroke="#212A61" stroke-width="2" stroke-linecap="round" stroke-linejoin="round"/>
</svg>
