<svg width="38" height="31" viewBox="0 0 38 31" fill="none" xmlns="http://www.w3.org/2000/svg">
<path d="M19 3.82729L32.5621 25.9549C33.3788 27.2875 32.4199 29 30.8569 29H7.14314C5.58011 29 4.62116 27.2875 5.43794 25.9549L19 3.82729Z" stroke="#949CB3" stroke-width="4"/>
<path d="M17.3388 15.155V19.46C17.3388 19.62 17.3738 19.735 17.4438 19.805C17.5238 19.875 17.6938 19.91 17.9538 19.91H19.0638V21.335H17.1588C16.5888 21.335 16.1288 21.275 15.7788 21.155C15.4388 21.035 15.1838 20.825 15.0138 20.525C14.8538 20.215 14.7488 19.885 14.6988 19.535C14.6588 19.185 14.6388 18.715 14.6388 18.125C14.6388 17.525 14.6588 17.07 14.6988 16.76C14.7488 16.45 14.8538 16.16 15.0138 15.89C15.1838 15.62 15.4388 15.43 15.7788 15.32C16.1288 15.21 16.5888 15.155 17.1588 15.155H17.3388ZM14.9088 22.655H16.7988C16.9388 22.655 17.0238 22.675 17.0538 22.715C17.0838 22.755 17.0988 22.84 17.0988 22.97V24.14C17.0988 24.3 17.1188 24.415 17.1588 24.485C17.2088 24.545 17.3238 24.575 17.5038 24.575H17.9388V23.3H19.1388V29.345H17.9388V26H16.9188C16.1888 26 15.6338 25.875 15.2538 25.625C14.8838 25.375 14.6988 24.94 14.6988 24.32V22.97C14.6988 22.76 14.7688 22.655 14.9088 22.655ZM19.1388 12.335V15.155H19.8438C20.5738 15.155 21.1238 15.28 21.4938 15.53C21.8738 15.78 22.0638 16.215 22.0638 16.835V18.185C22.0638 18.395 21.9938 18.5 21.8538 18.5H19.9638C19.8238 18.5 19.7388 18.48 19.7088 18.44C19.6788 18.4 19.6638 18.315 19.6638 18.185V17.015C19.6638 16.855 19.6388 16.745 19.5888 16.685C19.5488 16.615 19.4388 16.58 19.2588 16.58H19.1388V18.53H17.9388V12.335H19.1388ZM19.9038 19.925C20.3338 19.925 20.6638 19.935 20.8938 19.955C21.1338 19.965 21.3638 20.01 21.5838 20.09C21.8038 20.16 21.9538 20.245 22.0338 20.345C22.1238 20.445 22.2038 20.62 22.2738 20.87C22.3538 21.11 22.3988 21.37 22.4088 21.65C22.4188 21.93 22.4238 22.33 22.4238 22.85C22.4238 23.37 22.4188 23.785 22.4088 24.095C22.3988 24.395 22.3538 24.685 22.2738 24.965C22.2038 25.235 22.1238 25.425 22.0338 25.535C21.9538 25.645 21.8038 25.745 21.5838 25.835C21.3638 25.915 21.1338 25.965 20.8938 25.985C20.6638 25.995 20.3338 26 19.9038 26H19.7388L19.7238 19.925H19.9038Z" fill="#D9D9D9"/>
</svg>
